<svg width="1660" height="341" viewBox="0 0 1660 341" fill="none" xmlns="http://www.w3.org/2000/svg">
<mask id="mask0_11_31" style="mask-type:luminance" maskUnits="userSpaceOnUse" x="0" y="12" width="324" height="329">
<path d="M0 12.1597H323.881V340.999H0V12.1597Z" fill="white"/>
</mask>
<g mask="url(#mask0_11_31)">
<path d="M114.324 335.922L0.469295 22.5523C-1.3571 17.5269 2.37179 12.2134 7.72415 12.2134H66.0801C69.3238 12.2134 72.222 14.2432 73.3318 17.2894L154.54 240.294C157.004 247.061 166.586 247.061 169.05 240.294L250.258 17.2894C251.367 14.2432 254.266 12.2134 257.509 12.2134H315.865C321.218 12.2134 324.946 17.5269 323.12 22.5523L209.265 335.922C208.155 338.972 205.257 341.002 202.007 341.002H121.579C118.332 341.002 115.434 338.972 114.324 335.922Z" fill="white"/>
</g>
<mask id="mask1_11_31" style="mask-type:luminance" maskUnits="userSpaceOnUse" x="337" y="12" width="325" height="329">
<path d="M337.066 12.1597H661.759V340.999H337.066V12.1597Z" fill="white"/>
</mask>
<g mask="url(#mask1_11_31)">
<path d="M546.952 17.3179L660.782 330.615C662.618 335.666 658.873 341.002 653.492 341.002H595.219C591.956 341.002 589.045 338.962 587.929 335.904L506.765 113.016C504.289 106.22 494.662 106.22 492.186 113.016L411.022 335.904C409.906 338.962 406.995 341.002 403.732 341.002H345.459C340.081 341.002 336.333 335.666 338.169 330.615L451.999 17.3179C453.112 14.2558 456.026 12.2166 459.288 12.2166H539.666C542.925 12.2166 545.839 14.2558 546.952 17.3179Z" fill="white"/>
</g>
<mask id="mask2_11_31" style="mask-type:luminance" maskUnits="userSpaceOnUse" x="749" y="12" width="201" height="329">
<path d="M749.425 12.1597H949.923V340.999H749.425V12.1597Z" fill="white"/>
</mask>
<g mask="url(#mask2_11_31)">
<path d="M749.514 333.177V20.0381C749.514 15.7188 753.021 12.2166 757.349 12.2166H812.22C816.549 12.2166 820.056 15.7188 820.056 20.0381V262.73C820.056 267.052 823.559 270.554 827.888 270.554H941.555C945.88 270.554 949.387 274.057 949.387 278.376V333.177C949.387 337.499 945.88 341.002 941.555 341.002H757.349C753.021 341.002 749.514 337.499 749.514 333.177Z" fill="white"/>
</g>
<mask id="mask3_11_31" style="mask-type:luminance" maskUnits="userSpaceOnUse" x="1007" y="12" width="261" height="329">
<path d="M1007.56 12.1597H1267.31V340.999H1007.56V12.1597Z" fill="white"/>
</mask>
<g mask="url(#mask3_11_31)">
<path d="M1267.01 19.9937V74.8836C1267.01 79.1807 1263.52 82.664 1259.22 82.664H1180.74C1176.44 82.664 1172.95 86.1441 1172.95 90.4411V333.221C1172.95 337.518 1169.46 341.002 1165.16 341.002H1110.18C1105.87 341.002 1102.39 337.518 1102.39 333.221V90.4411C1102.39 86.1441 1098.9 82.664 1094.6 82.664H1016.12C1011.82 82.664 1008.33 79.1807 1008.33 74.8836V19.9937C1008.33 15.6966 1011.82 12.2166 1016.12 12.2166H1259.22C1263.52 12.2166 1267.01 15.6966 1267.01 19.9937Z" fill="white"/>
</g>
<mask id="mask4_11_31" style="mask-type:luminance" maskUnits="userSpaceOnUse" x="1326" y="0" width="326" height="341">
<path d="M1326.57 0H1651.27V340.999H1326.57V0Z" fill="white"/>
</mask>
<g mask="url(#mask4_11_31)">
<path d="M1489.02 270.555C1501.55 270.555 1513.36 267.936 1524.4 262.679C1535.47 257.442 1545.22 250.238 1553.68 241.083C1562.14 231.928 1568.76 221.32 1573.55 209.262C1578.33 197.2 1580.73 184.28 1580.73 170.503C1580.73 156.741 1578.33 143.821 1573.55 131.762C1568.76 119.701 1562.14 109.096 1553.68 99.9412C1545.22 90.7833 1535.47 83.5793 1524.4 78.3228C1513.36 73.0884 1501.55 70.4696 1489.02 70.4696C1476.46 70.4696 1464.68 73.0884 1453.61 78.3228C1442.57 83.5793 1432.81 90.7833 1424.35 99.9412C1415.87 109.096 1409.25 119.701 1404.47 131.762C1399.68 143.821 1397.29 156.741 1397.29 170.503C1397.29 184.28 1399.68 197.2 1404.47 209.262C1409.25 221.32 1415.87 231.928 1424.35 241.083C1432.81 250.238 1442.57 257.442 1453.61 262.679C1464.68 267.936 1476.46 270.555 1489.02 270.555ZM1489.02 341.002C1466.75 341.002 1445.83 336.588 1426.22 327.737C1406.63 318.89 1389.39 306.638 1374.5 290.985C1359.59 275.333 1347.92 257.214 1339.46 236.612C1330.98 216.026 1326.75 193.989 1326.75 170.503C1326.75 147.032 1330.98 124.995 1339.46 104.393C1347.92 83.8105 1359.59 65.6912 1374.5 50.0387C1389.39 34.3861 1406.63 22.1156 1426.22 13.2871C1445.83 4.43642 1466.75 0.00317383 1489.02 0.00317383C1511.43 0.00317383 1532.44 4.43642 1552.04 13.2871C1571.64 22.1156 1588.88 34.3861 1603.76 50.0387C1618.65 65.6912 1630.31 83.8105 1638.69 104.393C1647.08 124.995 1651.27 147.032 1651.27 170.503C1651.27 193.989 1647.08 216.026 1638.69 236.612C1630.31 257.214 1618.65 275.333 1603.76 290.985C1588.88 306.638 1571.64 318.89 1552.04 327.737C1532.44 336.588 1511.43 341.002 1489.02 341.002Z" fill="white"/>
</g>
</svg>
